<?xml version="1.0" standalone="no"?>
<!DOCTYPE svg PUBLIC "-//W3C//DTD SVG 20010904//EN"
 "http://www.w3.org/TR/2001/REC-SVG-20010904/DTD/svg10.dtd">
<svg version="1.0" xmlns="http://www.w3.org/2000/svg"
 width="720.000000pt" height="720.000000pt" viewBox="0 0 720.000000 720.000000"
 preserveAspectRatio="xMidYMid meet">
<metadata>
Created by potrace 1.11, written by Peter Selinger 2001-2013
</metadata>
<g transform="translate(0.000000,720.000000) scale(0.100000,-0.100000)"
fill="#000000" stroke="none">
<path d="M1921 7178 c-90 -47 -222 -199 -331 -383 -29 -49 -55 -92 -56 -94 -2
-2 -27 -5 -56 -7 -29 -2 -75 -6 -103 -9 -141 -13 -229 -18 -321 -19 -105 0
-120 5 -169 50 -11 11 -49 44 -85 74 -36 30 -67 57 -70 60 -12 14 -219 179
-250 200 -19 13 -37 27 -40 31 -3 4 -17 13 -30 19 -14 6 -41 20 -60 30 -19 11
-47 19 -61 20 -38 0 -87 -60 -96 -120 -5 -31 -4 -218 1 -245 2 -11 7 -45 11
-75 3 -30 16 -109 27 -175 11 -66 22 -133 24 -150 2 -16 6 -41 9 -55 3 -14 12
-60 20 -104 14 -73 13 -80 -4 -105 -142 -203 -168 -486 -70 -751 63 -170 189
-361 348 -530 68 -71 85 -104 132 -248 28 -86 32 -108 30 -197 -1 -55 -3 -120
-3 -145 -3 -150 44 -283 216 -620 202 -397 280 -554 318 -645 l33 -80 0 -460
c-1 -408 -6 -604 -20 -708 -3 -18 -7 -54 -11 -82 -3 -27 -10 -66 -17 -85 -6
-19 -12 -41 -13 -48 -4 -21 -25 -42 -64 -62 -58 -30 -136 -110 -163 -168 -43
-93 -20 -165 70 -222 35 -22 40 -30 50 -83 19 -100 60 -144 168 -183 67 -24
172 -40 246 -37 107 4 176 31 273 107 87 68 139 130 183 222 19 37 32 53 43
50 8 -3 38 -8 65 -12 28 -5 53 -9 58 -10 4 -1 17 -2 30 -3 42 -3 48 -13 33
-61 -27 -93 0 -196 68 -258 83 -75 168 -95 381 -87 143 5 181 8 250 19 17 2
48 7 70 11 22 3 85 15 140 25 55 10 114 21 132 24 18 4 112 26 209 51 163 40
179 43 205 30 78 -41 168 -59 284 -59 143 2 262 33 435 116 162 78 306 125
460 152 19 3 46 8 60 11 14 3 48 8 75 11 28 3 61 7 75 10 135 22 550 22 680
-1 14 -2 45 -7 70 -10 45 -5 72 -10 120 -20 14 -4 36 -8 50 -11 69 -13 215
-70 276 -106 250 -151 189 -303 -175 -432 -88 -32 -179 -60 -227 -71 -11 -2
-64 -15 -119 -29 -91 -22 -143 -33 -202 -41 -64 -9 -85 -20 -131 -69 -98 -103
-118 -184 -59 -240 64 -60 156 -81 352 -80 123 1 281 23 385 54 19 6 44 13 54
15 41 9 181 58 191 66 5 5 15 9 23 9 32 0 358 162 382 189 3 4 23 18 45 33
105 69 214 190 257 286 33 74 31 189 -6 265 -34 70 -114 159 -221 244 -44 35
-86 68 -93 74 -17 14 -170 109 -176 109 -3 0 -27 13 -53 28 -89 53 -414 182
-496 198 -12 2 -44 10 -72 18 -94 28 -305 68 -430 82 -33 3 -62 8 -65 9 -9 5
-262 18 -355 18 -99 0 -287 -10 -350 -18 -35 -4 -115 -15 -235 -32 -19 -2 -50
-8 -68 -13 -30 -8 -33 -7 -27 8 11 25 63 236 81 322 32 163 46 247 59 370 4
30 8 66 10 79 25 156 26 663 1 826 -3 17 -7 48 -10 70 -10 78 -38 211 -63 300
-14 50 -26 97 -28 105 -2 8 -15 46 -29 83 -150 403 -398 714 -753 941 -40 25
-73 43 -73 39 0 -3 -8 1 -17 10 -16 13 -99 54 -208 102 -48 21 -174 65 -258
90 -80 24 -180 87 -312 199 -71 60 -80 70 -102 116 -25 51 -75 116 -154 197
-72 74 -195 173 -216 173 -10 0 -20 18 -28 50 -1 3 -5 14 -9 25 -5 11 -22 56
-38 100 -42 113 -94 219 -124 255 -21 24 -25 37 -20 63 3 17 8 50 11 72 3 22
7 54 10 70 2 17 7 53 10 80 4 28 8 61 10 75 9 49 18 237 18 340 0 270 -42 386
-143 396 -34 4 -56 -1 -89 -18z"/>
</g>
</svg>
